<mxfile host="app.diagrams.net" modified="2024-03-05T21:33:33.784Z" agent="Mozilla/5.0 (Macintosh; Intel Mac OS X 10_15_7) AppleWebKit/537.36 (KHTML, like Gecko) Chrome/120.0.0.0 Safari/537.36" etag="UCXFFPlbZS5no4_4f34T" version="23.1.6" type="device">
  <diagram name="Page-1" id="xPEnvkA1RpxSaw0pQNKh">
    <mxGraphModel dx="851" dy="602" grid="1" gridSize="10" guides="1" tooltips="1" connect="1" arrows="1" fold="1" page="1" pageScale="1" pageWidth="850" pageHeight="1100" math="0" shadow="0">
      <root>
        <mxCell id="0" />
        <mxCell id="1" parent="0" />
        <mxCell id="fB2sVQTJ8VuvYEJ2r3EP-17" style="edgeStyle=orthogonalEdgeStyle;rounded=0;orthogonalLoop=1;jettySize=auto;html=1;exitX=0.145;exitY=1;exitDx=0;exitDy=-4.35;exitPerimeter=0;entryX=0.5;entryY=0;entryDx=0;entryDy=0;" edge="1" parent="1" source="fB2sVQTJ8VuvYEJ2r3EP-1" target="fB2sVQTJ8VuvYEJ2r3EP-2">
          <mxGeometry relative="1" as="geometry" />
        </mxCell>
        <mxCell id="fB2sVQTJ8VuvYEJ2r3EP-18" value="Router Eth1&lt;br&gt;SW eth1" style="edgeLabel;html=1;align=center;verticalAlign=middle;resizable=0;points=[];" vertex="1" connectable="0" parent="fB2sVQTJ8VuvYEJ2r3EP-17">
          <mxGeometry x="-0.1624" relative="1" as="geometry">
            <mxPoint as="offset" />
          </mxGeometry>
        </mxCell>
        <mxCell id="fB2sVQTJ8VuvYEJ2r3EP-1" value="Router" style="shape=cylinder3;whiteSpace=wrap;html=1;boundedLbl=1;backgroundOutline=1;size=15;" vertex="1" parent="1">
          <mxGeometry x="340" y="70" width="60" height="80" as="geometry" />
        </mxCell>
        <mxCell id="fB2sVQTJ8VuvYEJ2r3EP-2" value="SW 1" style="rounded=1;whiteSpace=wrap;html=1;" vertex="1" parent="1">
          <mxGeometry x="200" y="190" width="120" height="30" as="geometry" />
        </mxCell>
        <mxCell id="fB2sVQTJ8VuvYEJ2r3EP-3" value="SW 2" style="rounded=1;whiteSpace=wrap;html=1;" vertex="1" parent="1">
          <mxGeometry x="420" y="190" width="120" height="30" as="geometry" />
        </mxCell>
        <mxCell id="fB2sVQTJ8VuvYEJ2r3EP-14" style="edgeStyle=orthogonalEdgeStyle;rounded=0;orthogonalLoop=1;jettySize=auto;html=1;exitX=0.5;exitY=0;exitDx=0;exitDy=0;exitPerimeter=0;entryX=0.25;entryY=1;entryDx=0;entryDy=0;" edge="1" parent="1" source="fB2sVQTJ8VuvYEJ2r3EP-4" target="fB2sVQTJ8VuvYEJ2r3EP-2">
          <mxGeometry relative="1" as="geometry" />
        </mxCell>
        <mxCell id="fB2sVQTJ8VuvYEJ2r3EP-15" value="Eth 10" style="edgeLabel;html=1;align=center;verticalAlign=middle;resizable=0;points=[];" vertex="1" connectable="0" parent="fB2sVQTJ8VuvYEJ2r3EP-14">
          <mxGeometry x="0.0667" y="1" relative="1" as="geometry">
            <mxPoint as="offset" />
          </mxGeometry>
        </mxCell>
        <mxCell id="fB2sVQTJ8VuvYEJ2r3EP-4" value="PC1&lt;br&gt;192.168.1.10" style="shape=umlActor;verticalLabelPosition=bottom;verticalAlign=top;html=1;outlineConnect=0;" vertex="1" parent="1">
          <mxGeometry x="160" y="300" width="30" height="60" as="geometry" />
        </mxCell>
        <mxCell id="fB2sVQTJ8VuvYEJ2r3EP-5" value="PC2&lt;br&gt;192.168.1.11" style="shape=umlActor;verticalLabelPosition=bottom;verticalAlign=top;html=1;outlineConnect=0;" vertex="1" parent="1">
          <mxGeometry x="245" y="300" width="30" height="60" as="geometry" />
        </mxCell>
        <mxCell id="fB2sVQTJ8VuvYEJ2r3EP-12" style="edgeStyle=orthogonalEdgeStyle;rounded=0;orthogonalLoop=1;jettySize=auto;html=1;exitX=0.5;exitY=0;exitDx=0;exitDy=0;exitPerimeter=0;entryX=0.25;entryY=1;entryDx=0;entryDy=0;" edge="1" parent="1" source="fB2sVQTJ8VuvYEJ2r3EP-6" target="fB2sVQTJ8VuvYEJ2r3EP-3">
          <mxGeometry relative="1" as="geometry" />
        </mxCell>
        <mxCell id="fB2sVQTJ8VuvYEJ2r3EP-21" value="Eth 10" style="edgeLabel;html=1;align=center;verticalAlign=middle;resizable=0;points=[];" vertex="1" connectable="0" parent="fB2sVQTJ8VuvYEJ2r3EP-12">
          <mxGeometry x="-0.3778" y="3" relative="1" as="geometry">
            <mxPoint as="offset" />
          </mxGeometry>
        </mxCell>
        <mxCell id="fB2sVQTJ8VuvYEJ2r3EP-6" value="PC3&lt;br&gt;192.168.2.10&lt;div&gt;&lt;br/&gt;&lt;/div&gt;" style="shape=umlActor;verticalLabelPosition=bottom;verticalAlign=top;html=1;outlineConnect=0;" vertex="1" parent="1">
          <mxGeometry x="425" y="300" width="30" height="60" as="geometry" />
        </mxCell>
        <mxCell id="fB2sVQTJ8VuvYEJ2r3EP-11" value="Eth 11" style="edgeStyle=orthogonalEdgeStyle;rounded=0;orthogonalLoop=1;jettySize=auto;html=1;exitX=0.5;exitY=0;exitDx=0;exitDy=0;exitPerimeter=0;entryX=0.75;entryY=1;entryDx=0;entryDy=0;" edge="1" parent="1" source="fB2sVQTJ8VuvYEJ2r3EP-7" target="fB2sVQTJ8VuvYEJ2r3EP-3">
          <mxGeometry relative="1" as="geometry" />
        </mxCell>
        <mxCell id="fB2sVQTJ8VuvYEJ2r3EP-7" value="PC4&lt;br&gt;192.168.2.11" style="shape=umlActor;verticalLabelPosition=bottom;verticalAlign=top;html=1;outlineConnect=0;" vertex="1" parent="1">
          <mxGeometry x="500" y="300" width="30" height="60" as="geometry" />
        </mxCell>
        <mxCell id="fB2sVQTJ8VuvYEJ2r3EP-9" value="VLAN10&lt;br&gt;192.168.1.0/24" style="text;html=1;align=center;verticalAlign=middle;whiteSpace=wrap;rounded=0;" vertex="1" parent="1">
          <mxGeometry x="100" y="190" width="100" height="30" as="geometry" />
        </mxCell>
        <mxCell id="fB2sVQTJ8VuvYEJ2r3EP-10" value="VLAN20&lt;br&gt;192.168.2.0/24" style="text;html=1;align=center;verticalAlign=middle;whiteSpace=wrap;rounded=0;" vertex="1" parent="1">
          <mxGeometry x="540" y="190" width="100" height="30" as="geometry" />
        </mxCell>
        <mxCell id="fB2sVQTJ8VuvYEJ2r3EP-13" style="edgeStyle=orthogonalEdgeStyle;rounded=0;orthogonalLoop=1;jettySize=auto;html=1;exitX=0.5;exitY=0;exitDx=0;exitDy=0;exitPerimeter=0;entryX=0.75;entryY=1;entryDx=0;entryDy=0;" edge="1" parent="1" source="fB2sVQTJ8VuvYEJ2r3EP-5" target="fB2sVQTJ8VuvYEJ2r3EP-2">
          <mxGeometry relative="1" as="geometry" />
        </mxCell>
        <mxCell id="fB2sVQTJ8VuvYEJ2r3EP-16" value="Eth 11" style="edgeLabel;html=1;align=center;verticalAlign=middle;resizable=0;points=[];" vertex="1" connectable="0" parent="fB2sVQTJ8VuvYEJ2r3EP-13">
          <mxGeometry x="0.0727" y="-1" relative="1" as="geometry">
            <mxPoint as="offset" />
          </mxGeometry>
        </mxCell>
        <mxCell id="fB2sVQTJ8VuvYEJ2r3EP-19" style="edgeStyle=orthogonalEdgeStyle;rounded=0;orthogonalLoop=1;jettySize=auto;html=1;exitX=0.25;exitY=0;exitDx=0;exitDy=0;entryX=0.855;entryY=1;entryDx=0;entryDy=-4.35;entryPerimeter=0;" edge="1" parent="1" source="fB2sVQTJ8VuvYEJ2r3EP-3" target="fB2sVQTJ8VuvYEJ2r3EP-1">
          <mxGeometry relative="1" as="geometry">
            <Array as="points">
              <mxPoint x="450" y="150" />
              <mxPoint x="391" y="150" />
            </Array>
          </mxGeometry>
        </mxCell>
        <mxCell id="fB2sVQTJ8VuvYEJ2r3EP-20" value="Router Eth 2&lt;br&gt;SW eth 2" style="edgeLabel;html=1;align=center;verticalAlign=middle;resizable=0;points=[];" vertex="1" connectable="0" parent="fB2sVQTJ8VuvYEJ2r3EP-19">
          <mxGeometry x="-0.2431" y="-1" relative="1" as="geometry">
            <mxPoint as="offset" />
          </mxGeometry>
        </mxCell>
      </root>
    </mxGraphModel>
  </diagram>
</mxfile>
